<?xml version="1.0" encoding="UTF-8"?>
<svg width="300px" height="300px" viewBox="0 0 300 300" version="1.1" xmlns="http://www.w3.org/2000/svg" xmlns:xlink="http://www.w3.org/1999/xlink">
    <!-- Generator: Sketch 52.6 (67491) - http://www.bohemiancoding.com/sketch -->
    <title>Artboard</title>
    <desc>Created with Sketch.</desc>
    <g id="Artboard" stroke="none" stroke-width="1" fill="none" fill-rule="evenodd">
        <circle id="Oval" fill="#191919" cx="150" cy="150" r="150"></circle>
        <path d="M22,193.214395 L32.3055996,179.292796 C40.4415992,188.332796 53.4591987,196.287995 70.2735979,196.287995 C89.7999971,196.287995 96.6703968,186.343996 96.6703968,177.665596 C96.6703968,165.009597 82.9295974,161.393597 67.5615981,157.415997 C48.2159989,152.353597 25.7967998,146.748797 25.7967998,122.159998 C25.7967998,102.271999 43.3343991,87.8079999 68.465598,87.8079999 C87.0879972,87.8079999 101.732797,93.7743997 112.399996,104.622399 L101.913597,118.001599 C92.692797,108.238399 80.0367975,103.899199 67.0191981,103.899199 C53.6399986,103.899199 44.419199,110.769599 44.419199,120.894399 C44.419199,131.742398 57.4367985,135.177598 72.4431978,138.974398 C92.150397,144.217598 115.111996,150.364797 115.111996,176.038396 C115.111996,194.841595 102.094397,212.379195 69.550398,212.379195 C48.0351989,212.379195 32.3055996,204.604795 22,193.214395 Z M122.705596,213.825595 L165.555194,86 L178.030393,86 L135.180795,213.825595 L122.705596,213.825595 Z M183.996793,193.214395 L194.302393,179.292796 C202.438392,188.332796 215.455992,196.287995 232.270391,196.287995 C251.79679,196.287995 258.66719,186.343996 258.66719,177.665596 C258.66719,165.009597 244.92639,161.393597 229.558391,157.415997 C210.212792,152.353597 187.793593,146.748797 187.793593,122.159998 C187.793593,102.271999 205.331192,87.8079999 230.462391,87.8079999 C249.08479,87.8079999 263.72959,93.7743997 274.396789,104.622399 L263.91039,118.001599 C254.68959,108.238399 242.033591,103.899199 229.015991,103.899199 C215.636792,103.899199 206.415992,110.769599 206.415992,120.894399 C206.415992,131.742398 219.433592,135.177598 234.439991,138.974398 C254.14719,144.217598 277.108789,150.364797 277.108789,176.038396 C277.108789,194.841595 264.09119,212.379195 231.547191,212.379195 C210.031992,212.379195 194.302393,204.604795 183.996793,193.214395 Z" id="S/S-Copy" fill="#F8E71C"></path>
    </g>
</svg>