<?xml version="1.0" encoding="UTF-8"?>
<svg width="18px" height="33px" viewBox="0 0 18 33" version="1.1" xmlns="http://www.w3.org/2000/svg" xmlns:xlink="http://www.w3.org/1999/xlink">
    <!-- Generator: Sketch 52.6 (67491) - http://www.bohemiancoding.com/sketch -->
    <title>Path</title>
    <desc>Created with Sketch.</desc>
    <g id="Page-1" stroke="none" stroke-width="1" fill="none" fill-rule="evenodd">
        <g id="Desktop" transform="translate(-781.000000, -1519.000000)" fill="#FFFFFF">
            <path d="M794.607593,1541.07121 L792.566635,1543.16169 L792.566635,1527.8383 L794.607593,1529.92878 C795.603897,1530.94928 797.229008,1530.95918 798.237338,1529.9508 C799.245668,1528.94247 799.255397,1527.29779 798.259094,1526.27729 L791.907908,1519.7719 C790.911604,1518.75135 789.286493,1518.74151 788.278163,1519.74989 L781.762662,1526.26531 C780.754332,1527.27364 780.744603,1528.91832 781.740906,1529.93882 C782.243043,1530.45316 782.904752,1530.71074 783.566803,1530.71074 C784.21849,1530.71074 784.870519,1530.46107 785.370651,1529.96089 L787.433365,1527.89822 L787.433365,1543.10187 L785.370651,1541.03919 C784.362321,1540.03077 782.737259,1540.04061 781.740906,1541.06121 C780.744603,1542.08171 780.754332,1543.72639 781.762662,1544.73472 L788.278163,1551.2502 C788.758739,1551.73079 789.406955,1552 790.08206,1552 C790.087144,1552 790.092375,1552 790.09746,1552 C790.778138,1551.99584 791.429385,1551.71822 791.90781,1551.22803 L798.258996,1544.7226 C799.255348,1543.7021 799.24562,1542.05742 798.237289,1541.04909 C797.229008,1540.04076 795.603848,1540.05061 794.607593,1541.07121 Z" id="Path"></path>
        </g>
    </g>
</svg>