<?xml version="1.0" encoding="UTF-8"?>
<svg width="220px" height="512px" viewBox="0 0 220 512" version="1.1" xmlns="http://www.w3.org/2000/svg" xmlns:xlink="http://www.w3.org/1999/xlink">
    <!-- Generator: Sketch 52.6 (67491) - http://www.bohemiancoding.com/sketch -->
    <title>Group</title>
    <desc>Created with Sketch.</desc>
    <g id="Page-1" stroke="none" stroke-width="1" fill="none" fill-rule="evenodd">
        <g id="Group" fill="#FFFFFF" fill-rule="nonzero">
            <path d="M200.001,114 C194.854,114 189.711,112.027 185.8,108.084 L124.147,45.922 C120.358,42.103 115.335,40 110,40 C104.665,40 99.642,42.103 95.854,45.922 L34.2,108.084 C26.422,115.926 13.76,115.979 5.916,108.2 C-1.927,100.422 -1.979,87.758 5.8,79.916 L67.453,17.754 C78.809,6.305 93.919,0 110,0 C126.081,0 141.191,6.305 152.547,17.754 L214.2,79.916 C221.978,87.758 221.927,100.422 214.084,108.2 C210.185,112.068 205.091,114 200.001,114 Z M152.547,494.246 C141.191,505.695 126.081,512 110,512 C93.919,512 78.809,505.695 67.453,494.246 L5.8,432.084 C-1.979,424.242 -1.927,411.578 5.916,403.8 C13.76,396.021 26.422,396.075 34.2,403.916 L95.854,466.078 C99.642,469.897 104.665,472 110,472 C115.335,472 120.358,469.897 124.147,466.078 L185.8,403.916 C193.578,396.074 206.24,396.022 214.084,403.8 C221.927,411.578 221.978,424.242 214.2,432.084 L152.547,494.246 Z" id="Combined-Shape"></path>
            <path d="M179,285 C179,323.598 147.598,355 109,355 C70.402,355 39,323.598 39,285 C39,246.402 70.402,215 109,215 C147.598,215 179,246.402 179,285 Z M139,285 C139,268.458 125.542,255 109,255 C92.458,255 79,268.458 79,285 C79,301.542 92.458,315 109,315 C125.542,315 139,301.542 139,285 Z" id="Combined-Shape"></path>
        </g>
    </g>
</svg>