<?xml version="1.0" encoding="UTF-8"?>
<svg width="43px" height="41px" viewBox="0 0 43 41" version="1.1" xmlns="http://www.w3.org/2000/svg" xmlns:xlink="http://www.w3.org/1999/xlink">
    <!-- Generator: Sketch 52.6 (67491) - http://www.bohemiancoding.com/sketch -->
    <title>Path</title>
    <desc>Created with Sketch.</desc>
    <g id="Page-1" stroke="none" stroke-width="1" fill="none" fill-rule="evenodd">
        <g id="Desktop-Copy-2" transform="translate(-586.000000, -4859.000000)" fill="#F8E71C">
            <g id="Group-14" transform="translate(396.000000, 4844.000000)">
                <path d="M190,18.6000001 L190,52.3637352 C190,54.3519604 191.611775,55.9637354 193.6,55.9637354 L204.700625,55.9637354 C205.775625,56.161602 206.169792,55.5109596 206.169792,54.9530114 C206.169792,54.4538884 206.151875,53.1312125 206.142917,51.3789344 C200.162333,52.6463502 198.901,48.5588896 198.901,48.5588896 C197.92275,46.1327954 196.509125,45.4839356 196.509125,45.4839356 C194.561583,44.1808681 196.659625,44.2076068 196.659625,44.2076068 C198.818583,44.3537785 199.952708,46.373444 199.952708,46.373444 C201.869792,49.5874394 204.9855,48.6587142 206.214583,48.122157 C206.408083,46.7620469 206.961708,45.8368868 207.57625,45.3110251 C202.801458,44.7851634 197.783,42.9776252 197.783,34.9239195 C197.783,32.6297364 198.616125,30.7544601 199.995708,29.2838299 C199.753833,28.7526205 199.028208,26.6153046 200.183833,23.7203914 C200.183833,23.7203914 201.984458,23.1570954 206.096333,25.8755331 C207.816333,25.4084966 209.643833,25.1767609 211.471333,25.1660654 C213.298833,25.1767609 215.126333,25.4084966 216.846333,25.8755331 C220.931333,23.1570954 222.731958,23.7203914 222.731958,23.7203914 C223.887583,26.6153046 223.161958,28.7526205 222.946958,29.2838299 C224.317583,30.7544601 225.150708,32.6297364 225.150708,34.9239195 C225.150708,42.9990162 220.125083,44.7762505 215.341333,45.2931993 C216.093833,45.9242333 216.792583,47.2130401 216.792583,49.1827933 C216.792583,51.9957078 216.765708,54.2560218 216.765708,54.9387507 C216.765708,55.4895686 217.141958,56.1473413 218.243833,55.9369967 L229.393477,55.9572002 C231.381698,55.960803 232.996391,54.3519512 232.999994,52.3637293 C232.999998,52.3615549 233,52.3593804 233,52.357206 L233,18.6000001 C233,16.611775 231.388225,15 229.4,15 L193.6,15 C191.611775,15 190,16.611775 190,18.6000001 Z" id="Path"></path>
            </g>
        </g>
    </g>
</svg>