<?xml version="1.0" standalone="no"?>
<!DOCTYPE svg PUBLIC "-//W3C//DTD SVG 20010904//EN"
 "http://www.w3.org/TR/2001/REC-SVG-20010904/DTD/svg10.dtd">
<svg version="1.0" xmlns="http://www.w3.org/2000/svg"
 width="700.000000pt" height="700.000000pt" viewBox="0 0 700.000000 700.000000"
 preserveAspectRatio="xMidYMid meet">
<metadata>
Created by potrace 1.11, written by Peter Selinger 2001-2013
</metadata>
<g transform="translate(0.000000,700.000000) scale(0.100000,-0.100000)"
fill="#000000" stroke="none">
<path d="M3215 6989 c-745 -64 -1437 -353 -1995 -835 -551 -475 -938 -1101
-1114 -1799 -73 -291 -101 -529 -101 -860 1 -404 50 -722 171 -1090 254 -772
784 -1445 1476 -1876 447 -278 924 -443 1483 -511 130 -16 600 -16 730 0 451
55 818 163 1195 351 729 364 1312 973 1639 1714 144 325 238 674 283 1052 16
139 16 595 0 730 -61 497 -198 932 -418 1327 -538 964 -1489 1620 -2569 1772
-249 35 -546 45 -780 25z m934 -2006 c0 -5 -224 -674 -497 -1488 l-497 -1480
-144 -3 -143 -3 5 23 c4 13 227 683 498 1491 l491 1467 144 0 c79 0 144 -3
143 -7z m-2203 -67 c253 -53 443 -148 638 -319 l39 -35 -30 -38 c-16 -22 -71
-92 -122 -157 l-93 -117 -61 56 c-190 172 -450 266 -737 266 -209 0 -325 -38
-433 -141 -70 -67 -99 -129 -105 -224 -5 -93 13 -150 66 -209 80 -89 212 -144
588 -243 456 -121 656 -214 807 -374 77 -82 138 -196 162 -307 25 -108 17
-330 -15 -429 -96 -303 -335 -496 -709 -572 -68 -14 -136 -18 -326 -18 -211 1
-253 3 -345 23 -209 46 -385 119 -537 224 -78 54 -213 174 -213 189 0 5 52 79
115 164 l116 156 67 -61 c111 -99 181 -147 297 -205 190 -94 378 -133 589
-122 192 10 322 57 426 153 69 64 106 133 121 223 26 163 -55 297 -233 384
-96 47 -205 83 -478 156 -285 76 -407 118 -545 189 -91 47 -125 72 -197 143
-74 72 -94 99 -127 170 -50 107 -65 178 -65 309 0 130 21 221 78 331 127 246
391 412 731 458 124 17 394 5 531 -23z m3783 -1 c248 -52 442 -149 635 -318
l39 -35 -30 -38 c-16 -22 -71 -92 -122 -157 l-93 -117 -61 56 c-190 172 -450
266 -737 266 -209 0 -325 -38 -433 -141 -70 -67 -99 -129 -105 -224 -8 -132
39 -211 167 -287 86 -50 197 -88 471 -161 473 -126 670 -216 823 -378 77 -82
138 -196 162 -307 25 -108 17 -330 -15 -429 -96 -303 -335 -496 -709 -572 -68
-14 -136 -18 -326 -18 -211 1 -253 3 -345 23 -209 46 -385 119 -537 224 -78
54 -213 174 -213 189 0 5 52 79 115 164 l116 156 67 -61 c248 -222 517 -330
825 -330 228 0 399 61 512 181 55 58 82 117 96 201 26 160 -56 294 -233 381
-96 47 -205 83 -478 156 -285 76 -407 118 -545 189 -91 47 -125 72 -197 143
-74 72 -94 99 -127 170 -50 107 -65 178 -65 309 0 130 21 221 78 331 127 246
391 412 731 458 125 17 394 5 534 -24z"/>
</g>
</svg>
